<?xml version="1.0" standalone="no"?>
<!DOCTYPE svg PUBLIC "-//W3C//DTD SVG 20010904//EN"
 "http://www.w3.org/TR/2001/REC-SVG-20010904/DTD/svg10.dtd">
<svg version="1.0" xmlns="http://www.w3.org/2000/svg"
 width="1200.000000pt" height="628.000000pt" viewBox="0 0 1200.000000 628.000000"
 preserveAspectRatio="xMidYMid meet">

<g transform="translate(0.000000,628.000000) scale(0.100000,-0.100000)"
fill="#000000" stroke="none">
<path d="M9105 4740 l-140 -140 138 -137 137 -138 135 135 c74 74 135 139 135
145 0 6 -60 70 -133 143 l-132 132 -140 -140z"/>
<path d="M10856 3640 c-268 -57 -471 -211 -605 -461 -85 -159 -129 -335 -138
-559 -16 -426 88 -754 308 -972 264 -261 741 -314 1069 -118 166 98 294 266
361 473 23 73 51 216 43 228 -3 5 -95 9 -204 9 l-198 0 -7 -42 c-11 -65 -61
-195 -96 -249 -44 -70 -120 -134 -187 -159 -115 -43 -255 -36 -371 18 -72 34
-186 147 -228 227 -117 224 -137 639 -44 908 84 242 275 378 512 365 201 -12
340 -146 399 -385 l11 -43 200 0 200 0 -7 48 c-40 279 -208 522 -444 642 -165
84 -382 110 -574 70z"/>
<path d="M180 2535 l0 -1075 675 0 675 0 0 175 0 175 -485 0 -485 0 0 290 0
290 440 0 440 0 0 170 0 170 -440 0 -440 0 0 270 0 270 485 0 485 0 0 170 0
170 -675 0 -675 0 0 -1075z"/>
<path d="M2100 3440 l0 -170 318 -2 317 -3 3 -902 2 -903 185 0 185 0 2 903 3
902 318 3 317 2 0 170 0 170 -825 0 -825 0 0 -170z"/>
<path d="M4320 2535 l0 -1075 190 0 190 0 0 465 0 465 395 0 395 0 0 -465 0
-465 190 0 190 0 0 1075 0 1075 -190 0 -190 0 0 -440 0 -440 -395 0 -395 0 0
440 0 440 -190 0 -190 0 0 -1075z"/>
<path d="M6650 2535 l0 -1075 190 0 190 0 1 748 c0 490 4 742 10 732 5 -8 118
-206 250 -440 133 -234 320 -563 416 -732 l176 -308 188 0 189 0 0 1075 0
1075 -185 0 -185 0 -2 -747 -3 -748 -219 390 c-120 215 -309 551 -420 747
l-201 358 -197 0 -198 0 0 -1075z"/>
<path d="M9050 2535 l0 -1075 190 0 190 0 0 1075 0 1075 -190 0 -190 0 0
-1075z"/>
</g>
</svg>
